<?xml version="1.0" encoding="UTF-8"?>
<svg width="23px" height="24px" viewBox="0 0 23 24" version="1.1" xmlns="http://www.w3.org/2000/svg" xmlns:xlink="http://www.w3.org/1999/xlink">
    <!-- Generator: Sketch 52.5 (67469) - http://www.bohemiancoding.com/sketch -->
    <title>noun_Power_1149276</title>
    <desc>Created with Sketch.</desc>
    <g id="Page-1" stroke="none" stroke-width="1" fill="none" fill-rule="evenodd">
        <g id="ADMIN_DASHBOARD" transform="translate(-136.000000, -118.000000)" fill="#FF6A7B" fill-rule="nonzero">
            <g id="noun_Power_1149276" transform="translate(136.000000, 118.000000)">
                <path d="M10.5017361,8 L10.5017361,1 C10.5017361,0.44 10.9409722,0 11.5,0 C12.0590278,0 12.4982639,0.44 12.4982639,1 L12.4982639,8 C12.4982639,8.56 12.0590278,9 11.5,9 C10.9409722,9 10.5017361,8.56 10.5017361,8 Z M13.296875,1.12 L13.296875,3.16 C17.6892361,4 21.0034722,7.88 21.0034722,12.52 C21.0034722,17.72 16.7309028,22 11.5,22 C6.26909722,22 1.99652778,17.72 1.99652778,12.48 C1.99652778,7.84 5.31076389,4 9.703125,3.12 L9.703125,1.08 C4.23263889,1.96 0,6.72 0,12.44 C0,18.84 5.15104167,24 11.5,24 C17.8489583,24 23,18.84 23,12.48 C23,6.76 18.7673611,1.96 13.296875,1.12 Z" id="Shape"></path>
            </g>
        </g>
    </g>
</svg>