<?xml version="1.0" encoding="UTF-8"?>
<svg width="27px" height="27px" viewBox="0 0 27 27" version="1.1" xmlns="http://www.w3.org/2000/svg" xmlns:xlink="http://www.w3.org/1999/xlink">
    <!-- Generator: Sketch 52.5 (67469) - http://www.bohemiancoding.com/sketch -->
    <title>noun_Search_2124834</title>
    <desc>Created with Sketch.</desc>
    <g id="Page-1" stroke="none" stroke-width="1" fill="none" fill-rule="evenodd">
        <g id="ADMIN_DASHBOARD" transform="translate(-65.000000, -196.000000)" fill="#DCDBDB" fill-rule="nonzero" stroke="#E1E1E1">
            <g id="noun_Search_2124834" transform="translate(66.000000, 197.000000)">
                <path d="M10.7371795,21.446863 C13.5897436,21.446863 16.1538462,20.3265045 18.0769231,18.5339309 L24.4551282,24.9039693 C24.5192308,24.9679898 24.6153846,25 24.6794872,25 C24.7435897,25 24.8397436,24.9679898 24.9038462,24.9039693 C25.0320513,24.7759283 25.0320513,24.5838668 24.9038462,24.4558259 L18.525641,18.0537772 C20.3525641,16.1331626 21.4423077,13.5403329 21.4423077,10.7234315 C21.474359,4.80153649 16.6666667,0 10.7371795,0 C4.80769231,0 0,4.80153649 0,10.7234315 C0,16.6453265 4.80769231,21.446863 10.7371795,21.446863 Z M10.7371795,0.640204866 C16.3141026,0.640204866 20.8333333,5.15364917 20.8333333,10.7234315 C20.8333333,16.2932138 16.3141026,20.8066581 10.7371795,20.8066581 C5.16025641,20.8066581 0.641025641,16.2932138 0.641025641,10.7234315 C0.641025641,5.15364917 5.16025641,0.640204866 10.7371795,0.640204866 Z" id="Shape"></path>
            </g>
        </g>
    </g>
</svg>